<mxfile host="app.diagrams.net" modified="2023-01-23T14:13:34.282Z" agent="5.0 (Windows NT 10.0; Win64; x64) AppleWebKit/537.36 (KHTML, like Gecko) Chrome/109.0.0.0 Safari/537.36" etag="jtyupyNrdS2Oc5L4Muel" version="20.8.10" type="github">
  <diagram name="페이지-1" id="fak8buCkkVo0T9wNgY8q">
    <mxGraphModel dx="3585" dy="1910" grid="1" gridSize="10" guides="1" tooltips="1" connect="1" arrows="1" fold="1" page="1" pageScale="1" pageWidth="3300" pageHeight="2339" math="0" shadow="0">
      <root>
        <mxCell id="0" />
        <mxCell id="1" parent="0" />
        <mxCell id="8w0o-zl5EEHGcj-6kQpV-1" value="글" style="rounded=0;whiteSpace=wrap;html=1;" vertex="1" parent="1">
          <mxGeometry x="1462.5" y="1430" width="160" height="80" as="geometry" />
        </mxCell>
        <mxCell id="8w0o-zl5EEHGcj-6kQpV-140" style="edgeStyle=orthogonalEdgeStyle;orthogonalLoop=1;jettySize=auto;html=1;entryX=0.5;entryY=0;entryDx=0;entryDy=0;startArrow=none;startFill=0;endArrow=none;endFill=0;" edge="1" parent="1" source="8w0o-zl5EEHGcj-6kQpV-2" target="8w0o-zl5EEHGcj-6kQpV-1">
          <mxGeometry relative="1" as="geometry" />
        </mxCell>
        <mxCell id="8w0o-zl5EEHGcj-6kQpV-2" value="&lt;u&gt;글 번호&lt;/u&gt;" style="ellipse;whiteSpace=wrap;html=1;" vertex="1" parent="1">
          <mxGeometry x="1507.5" y="1290" width="70" height="50" as="geometry" />
        </mxCell>
        <mxCell id="8w0o-zl5EEHGcj-6kQpV-141" style="edgeStyle=orthogonalEdgeStyle;orthogonalLoop=1;jettySize=auto;html=1;entryX=0.75;entryY=0;entryDx=0;entryDy=0;startArrow=none;startFill=0;endArrow=none;endFill=0;exitX=0.5;exitY=1;exitDx=0;exitDy=0;" edge="1" parent="1" source="8w0o-zl5EEHGcj-6kQpV-4" target="8w0o-zl5EEHGcj-6kQpV-1">
          <mxGeometry relative="1" as="geometry" />
        </mxCell>
        <mxCell id="8w0o-zl5EEHGcj-6kQpV-4" value="글 분류" style="ellipse;whiteSpace=wrap;html=1;" vertex="1" parent="1">
          <mxGeometry x="1632.5" y="1290" width="70" height="50" as="geometry" />
        </mxCell>
        <mxCell id="8w0o-zl5EEHGcj-6kQpV-146" style="edgeStyle=orthogonalEdgeStyle;orthogonalLoop=1;jettySize=auto;html=1;entryX=1;entryY=0.5;entryDx=0;entryDy=0;startArrow=none;startFill=0;endArrow=none;endFill=0;" edge="1" parent="1" source="8w0o-zl5EEHGcj-6kQpV-5" target="8w0o-zl5EEHGcj-6kQpV-1">
          <mxGeometry relative="1" as="geometry" />
        </mxCell>
        <mxCell id="8w0o-zl5EEHGcj-6kQpV-5" value="글 제목" style="ellipse;whiteSpace=wrap;html=1;" vertex="1" parent="1">
          <mxGeometry x="1702.5" y="1445" width="70" height="50" as="geometry" />
        </mxCell>
        <mxCell id="8w0o-zl5EEHGcj-6kQpV-145" style="edgeStyle=orthogonalEdgeStyle;orthogonalLoop=1;jettySize=auto;html=1;entryX=0.875;entryY=1.032;entryDx=0;entryDy=0;entryPerimeter=0;startArrow=none;startFill=0;endArrow=none;endFill=0;exitX=0.5;exitY=0;exitDx=0;exitDy=0;" edge="1" parent="1" source="8w0o-zl5EEHGcj-6kQpV-6" target="8w0o-zl5EEHGcj-6kQpV-1">
          <mxGeometry relative="1" as="geometry" />
        </mxCell>
        <mxCell id="8w0o-zl5EEHGcj-6kQpV-6" value="글 내용" style="ellipse;whiteSpace=wrap;html=1;" vertex="1" parent="1">
          <mxGeometry x="1632.5" y="1600" width="70" height="50" as="geometry" />
        </mxCell>
        <mxCell id="8w0o-zl5EEHGcj-6kQpV-144" style="edgeStyle=orthogonalEdgeStyle;orthogonalLoop=1;jettySize=auto;html=1;entryX=0.5;entryY=1;entryDx=0;entryDy=0;startArrow=none;startFill=0;endArrow=none;endFill=0;" edge="1" parent="1" source="8w0o-zl5EEHGcj-6kQpV-7" target="8w0o-zl5EEHGcj-6kQpV-1">
          <mxGeometry relative="1" as="geometry" />
        </mxCell>
        <mxCell id="8w0o-zl5EEHGcj-6kQpV-7" value="글 태그" style="ellipse;whiteSpace=wrap;html=1;" vertex="1" parent="1">
          <mxGeometry x="1507.5" y="1600" width="70" height="50" as="geometry" />
        </mxCell>
        <mxCell id="8w0o-zl5EEHGcj-6kQpV-143" style="edgeStyle=orthogonalEdgeStyle;orthogonalLoop=1;jettySize=auto;html=1;entryX=0.13;entryY=1.032;entryDx=0;entryDy=0;entryPerimeter=0;startArrow=none;startFill=0;endArrow=none;endFill=0;exitX=0.5;exitY=0;exitDx=0;exitDy=0;" edge="1" parent="1" source="8w0o-zl5EEHGcj-6kQpV-8" target="8w0o-zl5EEHGcj-6kQpV-1">
          <mxGeometry relative="1" as="geometry" />
        </mxCell>
        <mxCell id="8w0o-zl5EEHGcj-6kQpV-8" value="글 작성자" style="ellipse;whiteSpace=wrap;html=1;" vertex="1" parent="1">
          <mxGeometry x="1362.5" y="1600" width="70" height="50" as="geometry" />
        </mxCell>
        <mxCell id="8w0o-zl5EEHGcj-6kQpV-142" style="edgeStyle=orthogonalEdgeStyle;orthogonalLoop=1;jettySize=auto;html=1;entryX=0;entryY=0.5;entryDx=0;entryDy=0;startArrow=none;startFill=0;endArrow=none;endFill=0;" edge="1" parent="1" source="8w0o-zl5EEHGcj-6kQpV-9" target="8w0o-zl5EEHGcj-6kQpV-1">
          <mxGeometry relative="1" as="geometry" />
        </mxCell>
        <mxCell id="8w0o-zl5EEHGcj-6kQpV-9" value="글 등록일" style="ellipse;whiteSpace=wrap;html=1;" vertex="1" parent="1">
          <mxGeometry x="1302.5" y="1445" width="70" height="50" as="geometry" />
        </mxCell>
        <mxCell id="8w0o-zl5EEHGcj-6kQpV-139" style="edgeStyle=orthogonalEdgeStyle;orthogonalLoop=1;jettySize=auto;html=1;exitX=0.5;exitY=1;exitDx=0;exitDy=0;entryX=0.185;entryY=-0.012;entryDx=0;entryDy=0;entryPerimeter=0;endArrow=none;endFill=0;startArrow=none;startFill=0;" edge="1" parent="1" source="8w0o-zl5EEHGcj-6kQpV-10" target="8w0o-zl5EEHGcj-6kQpV-1">
          <mxGeometry relative="1" as="geometry" />
        </mxCell>
        <mxCell id="8w0o-zl5EEHGcj-6kQpV-10" value="글 상태" style="ellipse;whiteSpace=wrap;html=1;" vertex="1" parent="1">
          <mxGeometry x="1359.5" y="1290" width="70" height="50" as="geometry" />
        </mxCell>
        <mxCell id="8w0o-zl5EEHGcj-6kQpV-11" value="글 분류" style="rounded=0;whiteSpace=wrap;html=1;" vertex="1" parent="1">
          <mxGeometry x="150" y="100" width="160" height="80" as="geometry" />
        </mxCell>
        <mxCell id="8w0o-zl5EEHGcj-6kQpV-20" value="글 분류 번호" style="ellipse;whiteSpace=wrap;html=1;" vertex="1" parent="1">
          <mxGeometry x="195" y="20" width="70" height="50" as="geometry" />
        </mxCell>
        <mxCell id="8w0o-zl5EEHGcj-6kQpV-21" value="분류" style="ellipse;whiteSpace=wrap;html=1;" vertex="1" parent="1">
          <mxGeometry x="50" y="115" width="70" height="50" as="geometry" />
        </mxCell>
        <mxCell id="8w0o-zl5EEHGcj-6kQpV-22" value="토픽" style="ellipse;whiteSpace=wrap;html=1;" vertex="1" parent="1">
          <mxGeometry x="340" y="115" width="70" height="50" as="geometry" />
        </mxCell>
        <mxCell id="8w0o-zl5EEHGcj-6kQpV-23" value="글 태그" style="rounded=0;whiteSpace=wrap;html=1;" vertex="1" parent="1">
          <mxGeometry x="150" y="220" width="160" height="80" as="geometry" />
        </mxCell>
        <mxCell id="8w0o-zl5EEHGcj-6kQpV-24" value="글 태그 식별번호" style="ellipse;whiteSpace=wrap;html=1;" vertex="1" parent="1">
          <mxGeometry x="340" y="235" width="110" height="50" as="geometry" />
        </mxCell>
        <mxCell id="8w0o-zl5EEHGcj-6kQpV-25" value="글 태그 내용" style="ellipse;whiteSpace=wrap;html=1;" vertex="1" parent="1">
          <mxGeometry x="50" y="230" width="70" height="50" as="geometry" />
        </mxCell>
        <mxCell id="8w0o-zl5EEHGcj-6kQpV-31" value="회원" style="rounded=0;whiteSpace=wrap;html=1;" vertex="1" parent="1">
          <mxGeometry x="2133" y="1670" width="160" height="80" as="geometry" />
        </mxCell>
        <mxCell id="8w0o-zl5EEHGcj-6kQpV-147" style="edgeStyle=orthogonalEdgeStyle;orthogonalLoop=1;jettySize=auto;html=1;entryX=0.5;entryY=0;entryDx=0;entryDy=0;startArrow=none;startFill=0;endArrow=none;endFill=0;" edge="1" parent="1" source="8w0o-zl5EEHGcj-6kQpV-32" target="8w0o-zl5EEHGcj-6kQpV-31">
          <mxGeometry relative="1" as="geometry" />
        </mxCell>
        <mxCell id="8w0o-zl5EEHGcj-6kQpV-32" value="&lt;u&gt;회원 식별 번호&lt;/u&gt;" style="ellipse;whiteSpace=wrap;html=1;" vertex="1" parent="1">
          <mxGeometry x="2158" y="1550" width="110" height="50" as="geometry" />
        </mxCell>
        <mxCell id="8w0o-zl5EEHGcj-6kQpV-149" style="edgeStyle=orthogonalEdgeStyle;orthogonalLoop=1;jettySize=auto;html=1;entryX=0.865;entryY=-0.017;entryDx=0;entryDy=0;entryPerimeter=0;startArrow=none;startFill=0;endArrow=none;endFill=0;exitX=0.5;exitY=1;exitDx=0;exitDy=0;" edge="1" parent="1" source="8w0o-zl5EEHGcj-6kQpV-33" target="8w0o-zl5EEHGcj-6kQpV-31">
          <mxGeometry relative="1" as="geometry" />
        </mxCell>
        <mxCell id="8w0o-zl5EEHGcj-6kQpV-33" value="이메일" style="ellipse;whiteSpace=wrap;html=1;" vertex="1" parent="1">
          <mxGeometry x="2343" y="1550" width="70" height="50" as="geometry" />
        </mxCell>
        <mxCell id="8w0o-zl5EEHGcj-6kQpV-154" style="edgeStyle=orthogonalEdgeStyle;orthogonalLoop=1;jettySize=auto;html=1;entryX=1;entryY=0.5;entryDx=0;entryDy=0;startArrow=none;startFill=0;endArrow=none;endFill=0;" edge="1" parent="1" source="8w0o-zl5EEHGcj-6kQpV-34" target="8w0o-zl5EEHGcj-6kQpV-31">
          <mxGeometry relative="1" as="geometry" />
        </mxCell>
        <mxCell id="8w0o-zl5EEHGcj-6kQpV-34" value="성별" style="ellipse;whiteSpace=wrap;html=1;" vertex="1" parent="1">
          <mxGeometry x="2353" y="1685" width="70" height="50" as="geometry" />
        </mxCell>
        <mxCell id="8w0o-zl5EEHGcj-6kQpV-153" style="edgeStyle=orthogonalEdgeStyle;orthogonalLoop=1;jettySize=auto;html=1;startArrow=none;startFill=0;endArrow=none;endFill=0;exitX=0.5;exitY=0;exitDx=0;exitDy=0;entryX=0.893;entryY=0.991;entryDx=0;entryDy=0;entryPerimeter=0;" edge="1" parent="1" source="8w0o-zl5EEHGcj-6kQpV-35" target="8w0o-zl5EEHGcj-6kQpV-31">
          <mxGeometry relative="1" as="geometry">
            <mxPoint x="2343" y="1845" as="sourcePoint" />
            <mxPoint x="2277" y="1754" as="targetPoint" />
          </mxGeometry>
        </mxCell>
        <mxCell id="8w0o-zl5EEHGcj-6kQpV-35" value="생년월일" style="ellipse;whiteSpace=wrap;html=1;" vertex="1" parent="1">
          <mxGeometry x="2343" y="1820" width="70" height="50" as="geometry" />
        </mxCell>
        <mxCell id="8w0o-zl5EEHGcj-6kQpV-152" style="edgeStyle=orthogonalEdgeStyle;orthogonalLoop=1;jettySize=auto;html=1;entryX=0.5;entryY=1;entryDx=0;entryDy=0;startArrow=none;startFill=0;endArrow=none;endFill=0;" edge="1" parent="1" source="8w0o-zl5EEHGcj-6kQpV-36" target="8w0o-zl5EEHGcj-6kQpV-31">
          <mxGeometry relative="1" as="geometry" />
        </mxCell>
        <mxCell id="8w0o-zl5EEHGcj-6kQpV-36" value="이름" style="ellipse;whiteSpace=wrap;html=1;" vertex="1" parent="1">
          <mxGeometry x="2178" y="1820" width="70" height="50" as="geometry" />
        </mxCell>
        <mxCell id="8w0o-zl5EEHGcj-6kQpV-151" style="edgeStyle=orthogonalEdgeStyle;orthogonalLoop=1;jettySize=auto;html=1;entryX=0.138;entryY=0.996;entryDx=0;entryDy=0;entryPerimeter=0;startArrow=none;startFill=0;endArrow=none;endFill=0;exitX=0.5;exitY=0;exitDx=0;exitDy=0;" edge="1" parent="1" source="8w0o-zl5EEHGcj-6kQpV-37" target="8w0o-zl5EEHGcj-6kQpV-31">
          <mxGeometry relative="1" as="geometry" />
        </mxCell>
        <mxCell id="8w0o-zl5EEHGcj-6kQpV-37" value="비밀번호" style="ellipse;whiteSpace=wrap;html=1;" vertex="1" parent="1">
          <mxGeometry x="2003" y="1830" width="70" height="50" as="geometry" />
        </mxCell>
        <mxCell id="8w0o-zl5EEHGcj-6kQpV-150" style="edgeStyle=orthogonalEdgeStyle;orthogonalLoop=1;jettySize=auto;html=1;entryX=0;entryY=0.5;entryDx=0;entryDy=0;startArrow=none;startFill=0;endArrow=none;endFill=0;" edge="1" parent="1" source="8w0o-zl5EEHGcj-6kQpV-38" target="8w0o-zl5EEHGcj-6kQpV-31">
          <mxGeometry relative="1" as="geometry" />
        </mxCell>
        <mxCell id="8w0o-zl5EEHGcj-6kQpV-38" value="아이디" style="ellipse;whiteSpace=wrap;html=1;" vertex="1" parent="1">
          <mxGeometry x="2000" y="1685" width="70" height="50" as="geometry" />
        </mxCell>
        <mxCell id="8w0o-zl5EEHGcj-6kQpV-148" style="edgeStyle=orthogonalEdgeStyle;orthogonalLoop=1;jettySize=auto;html=1;entryX=0.121;entryY=-0.017;entryDx=0;entryDy=0;entryPerimeter=0;startArrow=none;startFill=0;endArrow=none;endFill=0;exitX=0.5;exitY=1;exitDx=0;exitDy=0;" edge="1" parent="1" source="8w0o-zl5EEHGcj-6kQpV-39" target="8w0o-zl5EEHGcj-6kQpV-31">
          <mxGeometry relative="1" as="geometry" />
        </mxCell>
        <mxCell id="8w0o-zl5EEHGcj-6kQpV-39" value="닉네임" style="ellipse;whiteSpace=wrap;html=1;" vertex="1" parent="1">
          <mxGeometry x="2000" y="1550" width="70" height="50" as="geometry" />
        </mxCell>
        <mxCell id="8w0o-zl5EEHGcj-6kQpV-40" value="회원 로그인 로그" style="rounded=0;whiteSpace=wrap;html=1;" vertex="1" parent="1">
          <mxGeometry x="2133" y="1210" width="160" height="80" as="geometry" />
        </mxCell>
        <mxCell id="8w0o-zl5EEHGcj-6kQpV-166" style="edgeStyle=orthogonalEdgeStyle;orthogonalLoop=1;jettySize=auto;html=1;fontColor=#FFFFFF;startArrow=none;startFill=0;endArrow=none;endFill=0;entryX=0.75;entryY=0;entryDx=0;entryDy=0;exitX=0.5;exitY=1;exitDx=0;exitDy=0;" edge="1" parent="1" source="8w0o-zl5EEHGcj-6kQpV-42" target="8w0o-zl5EEHGcj-6kQpV-40">
          <mxGeometry relative="1" as="geometry" />
        </mxCell>
        <mxCell id="8w0o-zl5EEHGcj-6kQpV-42" value="로그인 일시" style="ellipse;whiteSpace=wrap;html=1;" vertex="1" parent="1">
          <mxGeometry x="2306" y="1100" width="70" height="50" as="geometry" />
        </mxCell>
        <mxCell id="8w0o-zl5EEHGcj-6kQpV-169" style="edgeStyle=orthogonalEdgeStyle;orthogonalLoop=1;jettySize=auto;html=1;entryX=0;entryY=0.5;entryDx=0;entryDy=0;fontColor=#FFFFFF;startArrow=none;startFill=0;endArrow=none;endFill=0;" edge="1" parent="1" source="8w0o-zl5EEHGcj-6kQpV-43" target="8w0o-zl5EEHGcj-6kQpV-40">
          <mxGeometry relative="1" as="geometry" />
        </mxCell>
        <mxCell id="8w0o-zl5EEHGcj-6kQpV-43" value="로그인 IP" style="ellipse;whiteSpace=wrap;html=1;" vertex="1" parent="1">
          <mxGeometry x="2003" y="1225" width="70" height="50" as="geometry" />
        </mxCell>
        <mxCell id="8w0o-zl5EEHGcj-6kQpV-167" style="edgeStyle=orthogonalEdgeStyle;orthogonalLoop=1;jettySize=auto;html=1;entryX=0.25;entryY=0;entryDx=0;entryDy=0;fontColor=#FFFFFF;startArrow=none;startFill=0;endArrow=none;endFill=0;" edge="1" parent="1" source="8w0o-zl5EEHGcj-6kQpV-44" target="8w0o-zl5EEHGcj-6kQpV-40">
          <mxGeometry relative="1" as="geometry" />
        </mxCell>
        <mxCell id="8w0o-zl5EEHGcj-6kQpV-44" value="&lt;u&gt;회원 로그인 로그 식별 번호&lt;/u&gt;" style="ellipse;whiteSpace=wrap;html=1;" vertex="1" parent="1">
          <mxGeometry x="2006" y="1110" width="165" height="50" as="geometry" />
        </mxCell>
        <mxCell id="8w0o-zl5EEHGcj-6kQpV-168" style="edgeStyle=orthogonalEdgeStyle;orthogonalLoop=1;jettySize=auto;html=1;entryX=1;entryY=0.5;entryDx=0;entryDy=0;fontColor=#FFFFFF;startArrow=none;startFill=0;endArrow=none;endFill=0;" edge="1" parent="1" source="8w0o-zl5EEHGcj-6kQpV-45" target="8w0o-zl5EEHGcj-6kQpV-40">
          <mxGeometry relative="1" as="geometry" />
        </mxCell>
        <mxCell id="8w0o-zl5EEHGcj-6kQpV-45" value="회원 식별 번호" style="ellipse;whiteSpace=wrap;html=1;" vertex="1" parent="1">
          <mxGeometry x="2353.5" y="1225" width="95" height="50" as="geometry" />
        </mxCell>
        <mxCell id="8w0o-zl5EEHGcj-6kQpV-174" style="edgeStyle=orthogonalEdgeStyle;orthogonalLoop=1;jettySize=auto;html=1;fontColor=#FFFFFF;startArrow=none;startFill=0;endArrow=none;endFill=0;" edge="1" parent="1" source="8w0o-zl5EEHGcj-6kQpV-46" target="8w0o-zl5EEHGcj-6kQpV-53">
          <mxGeometry relative="1" as="geometry" />
        </mxCell>
        <mxCell id="8w0o-zl5EEHGcj-6kQpV-175" style="edgeStyle=orthogonalEdgeStyle;orthogonalLoop=1;jettySize=auto;html=1;entryX=0;entryY=0.5;entryDx=0;entryDy=0;fontColor=#FFFFFF;startArrow=none;startFill=0;endArrow=none;endFill=0;" edge="1" parent="1" source="8w0o-zl5EEHGcj-6kQpV-46" target="8w0o-zl5EEHGcj-6kQpV-49">
          <mxGeometry relative="1" as="geometry" />
        </mxCell>
        <mxCell id="8w0o-zl5EEHGcj-6kQpV-46" value="리뷰" style="rounded=0;whiteSpace=wrap;html=1;" vertex="1" parent="1">
          <mxGeometry x="1830" y="2110" width="160" height="80" as="geometry" />
        </mxCell>
        <mxCell id="8w0o-zl5EEHGcj-6kQpV-177" style="edgeStyle=orthogonalEdgeStyle;orthogonalLoop=1;jettySize=auto;html=1;entryX=0.5;entryY=0;entryDx=0;entryDy=0;fontColor=#FFFFFF;startArrow=none;startFill=0;endArrow=none;endFill=0;" edge="1" parent="1" source="8w0o-zl5EEHGcj-6kQpV-47" target="8w0o-zl5EEHGcj-6kQpV-46">
          <mxGeometry relative="1" as="geometry" />
        </mxCell>
        <mxCell id="8w0o-zl5EEHGcj-6kQpV-47" value="&lt;u&gt;리뷰 식별 번호&lt;/u&gt;" style="ellipse;whiteSpace=wrap;html=1;" vertex="1" parent="1">
          <mxGeometry x="1867.5" y="2000" width="85" height="50" as="geometry" />
        </mxCell>
        <mxCell id="8w0o-zl5EEHGcj-6kQpV-178" style="edgeStyle=orthogonalEdgeStyle;orthogonalLoop=1;jettySize=auto;html=1;entryX=0.75;entryY=0;entryDx=0;entryDy=0;fontColor=#FFFFFF;startArrow=none;startFill=0;endArrow=none;endFill=0;" edge="1" parent="1" source="8w0o-zl5EEHGcj-6kQpV-48" target="8w0o-zl5EEHGcj-6kQpV-46">
          <mxGeometry relative="1" as="geometry">
            <Array as="points">
              <mxPoint x="2075" y="2070" />
              <mxPoint x="1950" y="2070" />
            </Array>
          </mxGeometry>
        </mxCell>
        <mxCell id="8w0o-zl5EEHGcj-6kQpV-48" value="글 번호" style="ellipse;whiteSpace=wrap;html=1;" vertex="1" parent="1">
          <mxGeometry x="2040" y="2000" width="70" height="50" as="geometry" />
        </mxCell>
        <mxCell id="8w0o-zl5EEHGcj-6kQpV-49" value="리뷰 상태" style="ellipse;whiteSpace=wrap;html=1;" vertex="1" parent="1">
          <mxGeometry x="2040" y="2125" width="70" height="50" as="geometry" />
        </mxCell>
        <mxCell id="8w0o-zl5EEHGcj-6kQpV-181" style="edgeStyle=orthogonalEdgeStyle;orthogonalLoop=1;jettySize=auto;html=1;entryX=0.75;entryY=1;entryDx=0;entryDy=0;fontColor=#FFFFFF;startArrow=none;startFill=0;endArrow=none;endFill=0;exitX=0.5;exitY=0;exitDx=0;exitDy=0;" edge="1" parent="1" source="8w0o-zl5EEHGcj-6kQpV-50" target="8w0o-zl5EEHGcj-6kQpV-46">
          <mxGeometry relative="1" as="geometry" />
        </mxCell>
        <mxCell id="8w0o-zl5EEHGcj-6kQpV-50" value="리뷰 별점" style="ellipse;whiteSpace=wrap;html=1;" vertex="1" parent="1">
          <mxGeometry x="2040" y="2240" width="70" height="50" as="geometry" />
        </mxCell>
        <mxCell id="8w0o-zl5EEHGcj-6kQpV-180" style="edgeStyle=orthogonalEdgeStyle;orthogonalLoop=1;jettySize=auto;html=1;entryX=0.5;entryY=1;entryDx=0;entryDy=0;fontColor=#FFFFFF;startArrow=none;startFill=0;endArrow=none;endFill=0;" edge="1" parent="1" source="8w0o-zl5EEHGcj-6kQpV-51" target="8w0o-zl5EEHGcj-6kQpV-46">
          <mxGeometry relative="1" as="geometry" />
        </mxCell>
        <mxCell id="8w0o-zl5EEHGcj-6kQpV-51" value="리뷰 작성자" style="ellipse;whiteSpace=wrap;html=1;" vertex="1" parent="1">
          <mxGeometry x="1875" y="2240" width="70" height="50" as="geometry" />
        </mxCell>
        <mxCell id="8w0o-zl5EEHGcj-6kQpV-179" style="edgeStyle=orthogonalEdgeStyle;orthogonalLoop=1;jettySize=auto;html=1;entryX=0.25;entryY=1;entryDx=0;entryDy=0;fontColor=#FFFFFF;startArrow=none;startFill=0;endArrow=none;endFill=0;exitX=0.5;exitY=0;exitDx=0;exitDy=0;" edge="1" parent="1" source="8w0o-zl5EEHGcj-6kQpV-52" target="8w0o-zl5EEHGcj-6kQpV-46">
          <mxGeometry relative="1" as="geometry" />
        </mxCell>
        <mxCell id="8w0o-zl5EEHGcj-6kQpV-52" value="리뷰 작성일" style="ellipse;whiteSpace=wrap;html=1;" vertex="1" parent="1">
          <mxGeometry x="1720" y="2240" width="70" height="50" as="geometry" />
        </mxCell>
        <mxCell id="8w0o-zl5EEHGcj-6kQpV-53" value="리뷰 내용" style="ellipse;whiteSpace=wrap;html=1;" vertex="1" parent="1">
          <mxGeometry x="1720" y="2125" width="70" height="50" as="geometry" />
        </mxCell>
        <mxCell id="8w0o-zl5EEHGcj-6kQpV-176" style="edgeStyle=orthogonalEdgeStyle;orthogonalLoop=1;jettySize=auto;html=1;exitX=0.5;exitY=1;exitDx=0;exitDy=0;entryX=0.25;entryY=0;entryDx=0;entryDy=0;fontColor=#FFFFFF;startArrow=none;startFill=0;endArrow=none;endFill=0;" edge="1" parent="1" source="8w0o-zl5EEHGcj-6kQpV-54" target="8w0o-zl5EEHGcj-6kQpV-46">
          <mxGeometry relative="1" as="geometry" />
        </mxCell>
        <mxCell id="8w0o-zl5EEHGcj-6kQpV-54" value="리뷰 제목" style="ellipse;whiteSpace=wrap;html=1;" vertex="1" parent="1">
          <mxGeometry x="1720" y="2000" width="70" height="50" as="geometry" />
        </mxCell>
        <mxCell id="8w0o-zl5EEHGcj-6kQpV-55" value="댓글" style="rounded=0;whiteSpace=wrap;html=1;" vertex="1" parent="1">
          <mxGeometry x="1455" y="1860" width="160" height="80" as="geometry" />
        </mxCell>
        <mxCell id="8w0o-zl5EEHGcj-6kQpV-158" style="edgeStyle=orthogonalEdgeStyle;orthogonalLoop=1;jettySize=auto;html=1;entryX=0.5;entryY=0;entryDx=0;entryDy=0;startArrow=none;startFill=0;endArrow=none;endFill=0;" edge="1" parent="1" source="8w0o-zl5EEHGcj-6kQpV-56" target="8w0o-zl5EEHGcj-6kQpV-55">
          <mxGeometry relative="1" as="geometry" />
        </mxCell>
        <mxCell id="8w0o-zl5EEHGcj-6kQpV-56" value="&lt;u&gt;댓글 식별 번호&lt;/u&gt;" style="ellipse;whiteSpace=wrap;html=1;" vertex="1" parent="1">
          <mxGeometry x="1492.5" y="1720" width="85" height="50" as="geometry" />
        </mxCell>
        <mxCell id="8w0o-zl5EEHGcj-6kQpV-159" style="edgeStyle=orthogonalEdgeStyle;orthogonalLoop=1;jettySize=auto;html=1;entryX=0.75;entryY=0;entryDx=0;entryDy=0;startArrow=none;startFill=0;endArrow=none;endFill=0;exitX=0.5;exitY=1;exitDx=0;exitDy=0;" edge="1" parent="1" source="8w0o-zl5EEHGcj-6kQpV-57" target="8w0o-zl5EEHGcj-6kQpV-55">
          <mxGeometry relative="1" as="geometry" />
        </mxCell>
        <mxCell id="8w0o-zl5EEHGcj-6kQpV-57" value="글 번호" style="ellipse;whiteSpace=wrap;html=1;" vertex="1" parent="1">
          <mxGeometry x="1620" y="1720" width="70" height="50" as="geometry" />
        </mxCell>
        <mxCell id="8w0o-zl5EEHGcj-6kQpV-162" style="edgeStyle=orthogonalEdgeStyle;orthogonalLoop=1;jettySize=auto;html=1;entryX=0.75;entryY=1;entryDx=0;entryDy=0;startArrow=none;startFill=0;endArrow=none;endFill=0;exitX=0.5;exitY=0;exitDx=0;exitDy=0;" edge="1" parent="1" source="8w0o-zl5EEHGcj-6kQpV-60" target="8w0o-zl5EEHGcj-6kQpV-55">
          <mxGeometry relative="1" as="geometry" />
        </mxCell>
        <mxCell id="8w0o-zl5EEHGcj-6kQpV-60" value="댓글 상태" style="ellipse;whiteSpace=wrap;html=1;" vertex="1" parent="1">
          <mxGeometry x="1627.5" y="2030" width="70" height="50" as="geometry" />
        </mxCell>
        <mxCell id="8w0o-zl5EEHGcj-6kQpV-161" style="edgeStyle=orthogonalEdgeStyle;orthogonalLoop=1;jettySize=auto;html=1;entryX=0.5;entryY=1;entryDx=0;entryDy=0;startArrow=none;startFill=0;endArrow=none;endFill=0;" edge="1" parent="1" source="8w0o-zl5EEHGcj-6kQpV-61" target="8w0o-zl5EEHGcj-6kQpV-55">
          <mxGeometry relative="1" as="geometry" />
        </mxCell>
        <mxCell id="8w0o-zl5EEHGcj-6kQpV-61" value="댓글 작성자" style="ellipse;whiteSpace=wrap;html=1;" vertex="1" parent="1">
          <mxGeometry x="1500" y="2030" width="70" height="50" as="geometry" />
        </mxCell>
        <mxCell id="8w0o-zl5EEHGcj-6kQpV-160" style="edgeStyle=orthogonalEdgeStyle;orthogonalLoop=1;jettySize=auto;html=1;entryX=0.25;entryY=1;entryDx=0;entryDy=0;startArrow=none;startFill=0;endArrow=none;endFill=0;exitX=0.5;exitY=0;exitDx=0;exitDy=0;" edge="1" parent="1" source="8w0o-zl5EEHGcj-6kQpV-62" target="8w0o-zl5EEHGcj-6kQpV-55">
          <mxGeometry relative="1" as="geometry" />
        </mxCell>
        <mxCell id="8w0o-zl5EEHGcj-6kQpV-62" value="댓글 작성일" style="ellipse;whiteSpace=wrap;html=1;" vertex="1" parent="1">
          <mxGeometry x="1372.5" y="2030" width="70" height="50" as="geometry" />
        </mxCell>
        <mxCell id="8w0o-zl5EEHGcj-6kQpV-157" style="edgeStyle=orthogonalEdgeStyle;orthogonalLoop=1;jettySize=auto;html=1;entryX=0.25;entryY=0;entryDx=0;entryDy=0;startArrow=none;startFill=0;endArrow=none;endFill=0;exitX=0.5;exitY=1;exitDx=0;exitDy=0;" edge="1" parent="1" source="8w0o-zl5EEHGcj-6kQpV-63" target="8w0o-zl5EEHGcj-6kQpV-55">
          <mxGeometry relative="1" as="geometry" />
        </mxCell>
        <mxCell id="8w0o-zl5EEHGcj-6kQpV-63" value="댓글 내용" style="ellipse;whiteSpace=wrap;html=1;" vertex="1" parent="1">
          <mxGeometry x="1372.5" y="1720" width="70" height="50" as="geometry" />
        </mxCell>
        <mxCell id="8w0o-zl5EEHGcj-6kQpV-64" value="댓글 수정" style="rounded=0;whiteSpace=wrap;html=1;" vertex="1" parent="1">
          <mxGeometry x="235" y="1050" width="160" height="80" as="geometry" />
        </mxCell>
        <mxCell id="8w0o-zl5EEHGcj-6kQpV-65" value="수정 식별 번호" style="ellipse;whiteSpace=wrap;html=1;" vertex="1" parent="1">
          <mxGeometry x="265" y="990" width="100" height="50" as="geometry" />
        </mxCell>
        <mxCell id="8w0o-zl5EEHGcj-6kQpV-66" value="수정일" style="ellipse;whiteSpace=wrap;html=1;" vertex="1" parent="1">
          <mxGeometry x="150" y="1065" width="70" height="50" as="geometry" />
        </mxCell>
        <mxCell id="8w0o-zl5EEHGcj-6kQpV-67" value="댓글 번호" style="ellipse;whiteSpace=wrap;html=1;" vertex="1" parent="1">
          <mxGeometry x="410" y="1065" width="70" height="50" as="geometry" />
        </mxCell>
        <mxCell id="8w0o-zl5EEHGcj-6kQpV-76" value="댓글 삭제" style="rounded=0;whiteSpace=wrap;html=1;" vertex="1" parent="1">
          <mxGeometry x="622" y="1050" width="160" height="80" as="geometry" />
        </mxCell>
        <mxCell id="8w0o-zl5EEHGcj-6kQpV-77" value="삭제 식별 번호" style="ellipse;whiteSpace=wrap;html=1;" vertex="1" parent="1">
          <mxGeometry x="652" y="990" width="100" height="50" as="geometry" />
        </mxCell>
        <mxCell id="8w0o-zl5EEHGcj-6kQpV-78" value="삭제일" style="ellipse;whiteSpace=wrap;html=1;" vertex="1" parent="1">
          <mxGeometry x="537" y="1065" width="70" height="50" as="geometry" />
        </mxCell>
        <mxCell id="8w0o-zl5EEHGcj-6kQpV-79" value="댓글 번호" style="ellipse;whiteSpace=wrap;html=1;" vertex="1" parent="1">
          <mxGeometry x="797" y="1065" width="70" height="50" as="geometry" />
        </mxCell>
        <mxCell id="8w0o-zl5EEHGcj-6kQpV-83" value="그룹" style="rounded=0;whiteSpace=wrap;html=1;" vertex="1" parent="1">
          <mxGeometry x="147.5" y="390" width="160" height="80" as="geometry" />
        </mxCell>
        <mxCell id="8w0o-zl5EEHGcj-6kQpV-84" value="그룹 식별 번호" style="ellipse;whiteSpace=wrap;html=1;" vertex="1" parent="1">
          <mxGeometry x="187.5" y="330" width="90" height="50" as="geometry" />
        </mxCell>
        <mxCell id="8w0o-zl5EEHGcj-6kQpV-85" value="글 번호" style="ellipse;whiteSpace=wrap;html=1;" vertex="1" parent="1">
          <mxGeometry x="62.5" y="405" width="70" height="50" as="geometry" />
        </mxCell>
        <mxCell id="8w0o-zl5EEHGcj-6kQpV-86" value="그룹 깊이" style="ellipse;whiteSpace=wrap;html=1;" vertex="1" parent="1">
          <mxGeometry x="327.5" y="405" width="70" height="50" as="geometry" />
        </mxCell>
        <mxCell id="8w0o-zl5EEHGcj-6kQpV-87" value="그룹 내부 순서" style="ellipse;whiteSpace=wrap;html=1;" vertex="1" parent="1">
          <mxGeometry x="187.5" y="480" width="90" height="50" as="geometry" />
        </mxCell>
        <mxCell id="8w0o-zl5EEHGcj-6kQpV-88" value="글 수정" style="rounded=0;whiteSpace=wrap;html=1;" vertex="1" parent="1">
          <mxGeometry x="1000" y="1050" width="160" height="80" as="geometry" />
        </mxCell>
        <mxCell id="8w0o-zl5EEHGcj-6kQpV-89" value="수정 식별 번호" style="ellipse;whiteSpace=wrap;html=1;" vertex="1" parent="1">
          <mxGeometry x="1030" y="990" width="100" height="50" as="geometry" />
        </mxCell>
        <mxCell id="8w0o-zl5EEHGcj-6kQpV-90" value="수정일" style="ellipse;whiteSpace=wrap;html=1;" vertex="1" parent="1">
          <mxGeometry x="915" y="1065" width="70" height="50" as="geometry" />
        </mxCell>
        <mxCell id="8w0o-zl5EEHGcj-6kQpV-91" value="글 번호" style="ellipse;whiteSpace=wrap;html=1;" vertex="1" parent="1">
          <mxGeometry x="1175" y="1065" width="70" height="50" as="geometry" />
        </mxCell>
        <mxCell id="8w0o-zl5EEHGcj-6kQpV-92" value="글 삭제" style="rounded=0;whiteSpace=wrap;html=1;" vertex="1" parent="1">
          <mxGeometry x="1387" y="1050" width="160" height="80" as="geometry" />
        </mxCell>
        <mxCell id="8w0o-zl5EEHGcj-6kQpV-93" value="삭제 식별 번호" style="ellipse;whiteSpace=wrap;html=1;" vertex="1" parent="1">
          <mxGeometry x="1417" y="990" width="100" height="50" as="geometry" />
        </mxCell>
        <mxCell id="8w0o-zl5EEHGcj-6kQpV-94" value="삭제일" style="ellipse;whiteSpace=wrap;html=1;" vertex="1" parent="1">
          <mxGeometry x="1302" y="1065" width="70" height="50" as="geometry" />
        </mxCell>
        <mxCell id="8w0o-zl5EEHGcj-6kQpV-95" value="글 번호" style="ellipse;whiteSpace=wrap;html=1;" vertex="1" parent="1">
          <mxGeometry x="1562" y="1065" width="70" height="50" as="geometry" />
        </mxCell>
        <mxCell id="8w0o-zl5EEHGcj-6kQpV-100" value="회원권" style="rounded=0;whiteSpace=wrap;html=1;" vertex="1" parent="1">
          <mxGeometry x="870" y="790" width="160" height="80" as="geometry" />
        </mxCell>
        <mxCell id="8w0o-zl5EEHGcj-6kQpV-101" value="&lt;u&gt;회원권 식별 번호&lt;/u&gt;" style="ellipse;whiteSpace=wrap;html=1;" vertex="1" parent="1">
          <mxGeometry x="892.5" y="730" width="115" height="50" as="geometry" />
        </mxCell>
        <mxCell id="8w0o-zl5EEHGcj-6kQpV-104" value="글 번호" style="ellipse;whiteSpace=wrap;html=1;" vertex="1" parent="1">
          <mxGeometry x="920" y="880" width="70" height="50" as="geometry" />
        </mxCell>
        <mxCell id="8w0o-zl5EEHGcj-6kQpV-105" value="12개월" style="ellipse;whiteSpace=wrap;html=1;" vertex="1" parent="1">
          <mxGeometry x="1045" y="740" width="70" height="50" as="geometry" />
        </mxCell>
        <mxCell id="8w0o-zl5EEHGcj-6kQpV-106" value="6개월" style="ellipse;whiteSpace=wrap;html=1;" vertex="1" parent="1">
          <mxGeometry x="1047" y="870" width="70" height="50" as="geometry" />
        </mxCell>
        <mxCell id="8w0o-zl5EEHGcj-6kQpV-107" value="3개월" style="ellipse;whiteSpace=wrap;html=1;" vertex="1" parent="1">
          <mxGeometry x="792" y="870" width="70" height="50" as="geometry" />
        </mxCell>
        <mxCell id="8w0o-zl5EEHGcj-6kQpV-108" value="1개월" style="ellipse;whiteSpace=wrap;html=1;" vertex="1" parent="1">
          <mxGeometry x="790" y="730" width="70" height="50" as="geometry" />
        </mxCell>
        <mxCell id="8w0o-zl5EEHGcj-6kQpV-109" value="업체" style="rounded=0;whiteSpace=wrap;html=1;" vertex="1" parent="1">
          <mxGeometry x="1300" y="780" width="160" height="80" as="geometry" />
        </mxCell>
        <mxCell id="8w0o-zl5EEHGcj-6kQpV-110" value="&lt;u&gt;글 주소 식별 번호&lt;/u&gt;" style="ellipse;whiteSpace=wrap;html=1;" vertex="1" parent="1">
          <mxGeometry x="1325" y="720" width="105" height="50" as="geometry" />
        </mxCell>
        <mxCell id="8w0o-zl5EEHGcj-6kQpV-111" value="글 번호" style="ellipse;whiteSpace=wrap;html=1;" vertex="1" parent="1">
          <mxGeometry x="1470" y="720" width="70" height="50" as="geometry" />
        </mxCell>
        <mxCell id="8w0o-zl5EEHGcj-6kQpV-112" value="번지" style="ellipse;whiteSpace=wrap;html=1;" vertex="1" parent="1">
          <mxGeometry x="1470" y="795" width="70" height="50" as="geometry" />
        </mxCell>
        <mxCell id="8w0o-zl5EEHGcj-6kQpV-113" value="리" style="ellipse;whiteSpace=wrap;html=1;" vertex="1" parent="1">
          <mxGeometry x="1470" y="870" width="70" height="50" as="geometry" />
        </mxCell>
        <mxCell id="8w0o-zl5EEHGcj-6kQpV-114" value="동" style="ellipse;whiteSpace=wrap;html=1;" vertex="1" parent="1">
          <mxGeometry x="1345" y="870" width="70" height="50" as="geometry" />
        </mxCell>
        <mxCell id="8w0o-zl5EEHGcj-6kQpV-115" value="구군" style="ellipse;whiteSpace=wrap;html=1;" vertex="1" parent="1">
          <mxGeometry x="1220" y="870" width="70" height="50" as="geometry" />
        </mxCell>
        <mxCell id="8w0o-zl5EEHGcj-6kQpV-116" value="시도" style="ellipse;whiteSpace=wrap;html=1;" vertex="1" parent="1">
          <mxGeometry x="1220" y="795" width="70" height="50" as="geometry" />
        </mxCell>
        <mxCell id="8w0o-zl5EEHGcj-6kQpV-117" value="업체명" style="ellipse;whiteSpace=wrap;html=1;" vertex="1" parent="1">
          <mxGeometry x="1220" y="720" width="70" height="50" as="geometry" />
        </mxCell>
        <mxCell id="8w0o-zl5EEHGcj-6kQpV-119" value="사진" style="rounded=0;whiteSpace=wrap;html=1;" vertex="1" parent="1">
          <mxGeometry x="1300" y="540" width="160" height="80" as="geometry" />
        </mxCell>
        <mxCell id="8w0o-zl5EEHGcj-6kQpV-120" value="이미지" style="ellipse;whiteSpace=wrap;html=1;" vertex="1" parent="1">
          <mxGeometry x="1200" y="555" width="70" height="50" as="geometry" />
        </mxCell>
        <mxCell id="8w0o-zl5EEHGcj-6kQpV-121" value="글 번호" style="ellipse;whiteSpace=wrap;html=1;" vertex="1" parent="1">
          <mxGeometry x="1490" y="555" width="70" height="50" as="geometry" />
        </mxCell>
        <mxCell id="8w0o-zl5EEHGcj-6kQpV-122" value="&lt;u&gt;글 사진 식별 번호&lt;/u&gt;" style="ellipse;whiteSpace=wrap;html=1;" vertex="1" parent="1">
          <mxGeometry x="1297.5" y="480" width="165" height="50" as="geometry" />
        </mxCell>
        <mxCell id="8w0o-zl5EEHGcj-6kQpV-123" value="이미지 파일 크기" style="ellipse;whiteSpace=wrap;html=1;" vertex="1" parent="1">
          <mxGeometry x="1332.5" y="630" width="95" height="50" as="geometry" />
        </mxCell>
        <mxCell id="8w0o-zl5EEHGcj-6kQpV-124" value="글 반응" style="rounded=0;whiteSpace=wrap;html=1;" vertex="1" parent="1">
          <mxGeometry x="510" y="300" width="160" height="80" as="geometry" />
        </mxCell>
        <mxCell id="8w0o-zl5EEHGcj-6kQpV-125" value="글 번호" style="ellipse;whiteSpace=wrap;html=1;" vertex="1" parent="1">
          <mxGeometry x="555" y="220" width="70" height="50" as="geometry" />
        </mxCell>
        <mxCell id="8w0o-zl5EEHGcj-6kQpV-126" value="글 조회수" style="ellipse;whiteSpace=wrap;html=1;" vertex="1" parent="1">
          <mxGeometry x="410" y="315" width="70" height="50" as="geometry" />
        </mxCell>
        <mxCell id="8w0o-zl5EEHGcj-6kQpV-127" value="글 좋아요" style="ellipse;whiteSpace=wrap;html=1;" vertex="1" parent="1">
          <mxGeometry x="700" y="315" width="70" height="50" as="geometry" />
        </mxCell>
        <mxCell id="8w0o-zl5EEHGcj-6kQpV-155" style="edgeStyle=orthogonalEdgeStyle;orthogonalLoop=1;jettySize=auto;html=1;entryX=1;entryY=0.75;entryDx=0;entryDy=0;startArrow=none;startFill=0;endArrow=none;endFill=0;" edge="1" parent="1" source="8w0o-zl5EEHGcj-6kQpV-129" target="8w0o-zl5EEHGcj-6kQpV-1">
          <mxGeometry relative="1" as="geometry" />
        </mxCell>
        <mxCell id="8w0o-zl5EEHGcj-6kQpV-156" style="edgeStyle=orthogonalEdgeStyle;orthogonalLoop=1;jettySize=auto;html=1;entryX=0;entryY=0.25;entryDx=0;entryDy=0;startArrow=none;startFill=0;endArrow=none;endFill=0;" edge="1" parent="1" source="8w0o-zl5EEHGcj-6kQpV-129" target="8w0o-zl5EEHGcj-6kQpV-31">
          <mxGeometry relative="1" as="geometry">
            <Array as="points">
              <mxPoint x="1962.5" y="1580" />
              <mxPoint x="1962.5" y="1680" />
              <mxPoint x="2133.5" y="1680" />
            </Array>
          </mxGeometry>
        </mxCell>
        <mxCell id="8w0o-zl5EEHGcj-6kQpV-129" value="작성한다" style="rhombus;whiteSpace=wrap;html=1;" vertex="1" parent="1">
          <mxGeometry x="1780" y="1520" width="107.5" height="120" as="geometry" />
        </mxCell>
        <mxCell id="8w0o-zl5EEHGcj-6kQpV-164" style="edgeStyle=orthogonalEdgeStyle;orthogonalLoop=1;jettySize=auto;html=1;entryX=0;entryY=0.75;entryDx=0;entryDy=0;startArrow=none;startFill=0;endArrow=none;endFill=0;" edge="1" parent="1" source="8w0o-zl5EEHGcj-6kQpV-163" target="8w0o-zl5EEHGcj-6kQpV-31">
          <mxGeometry relative="1" as="geometry">
            <Array as="points">
              <mxPoint x="1962.5" y="1830" />
              <mxPoint x="1962.5" y="1740" />
              <mxPoint x="2133.5" y="1740" />
            </Array>
          </mxGeometry>
        </mxCell>
        <mxCell id="8w0o-zl5EEHGcj-6kQpV-165" style="edgeStyle=orthogonalEdgeStyle;orthogonalLoop=1;jettySize=auto;html=1;entryX=1;entryY=0.5;entryDx=0;entryDy=0;startArrow=none;startFill=0;endArrow=none;endFill=0;" edge="1" parent="1" source="8w0o-zl5EEHGcj-6kQpV-163" target="8w0o-zl5EEHGcj-6kQpV-55">
          <mxGeometry relative="1" as="geometry" />
        </mxCell>
        <mxCell id="8w0o-zl5EEHGcj-6kQpV-163" value="작성한다" style="rhombus;whiteSpace=wrap;html=1;" vertex="1" parent="1">
          <mxGeometry x="1780" y="1770" width="107.5" height="120" as="geometry" />
        </mxCell>
        <mxCell id="8w0o-zl5EEHGcj-6kQpV-171" style="edgeStyle=orthogonalEdgeStyle;orthogonalLoop=1;jettySize=auto;html=1;entryX=0.5;entryY=1;entryDx=0;entryDy=0;fontColor=#FFFFFF;startArrow=none;startFill=0;endArrow=none;endFill=0;" edge="1" parent="1" source="8w0o-zl5EEHGcj-6kQpV-170" target="8w0o-zl5EEHGcj-6kQpV-40">
          <mxGeometry relative="1" as="geometry" />
        </mxCell>
        <mxCell id="8w0o-zl5EEHGcj-6kQpV-172" style="edgeStyle=orthogonalEdgeStyle;orthogonalLoop=1;jettySize=auto;html=1;entryX=0.5;entryY=0;entryDx=0;entryDy=0;fontColor=#FFFFFF;startArrow=none;startFill=0;endArrow=none;endFill=0;" edge="1" parent="1" source="8w0o-zl5EEHGcj-6kQpV-170" target="8w0o-zl5EEHGcj-6kQpV-32">
          <mxGeometry relative="1" as="geometry" />
        </mxCell>
        <mxCell id="8w0o-zl5EEHGcj-6kQpV-170" value="로그인한다" style="rhombus;whiteSpace=wrap;html=1;" vertex="1" parent="1">
          <mxGeometry x="2159.25" y="1350" width="107.5" height="120" as="geometry" />
        </mxCell>
        <mxCell id="8w0o-zl5EEHGcj-6kQpV-182" style="edgeStyle=orthogonalEdgeStyle;orthogonalLoop=1;jettySize=auto;html=1;entryX=1;entryY=0.25;entryDx=0;entryDy=0;fontColor=#FFFFFF;startArrow=none;startFill=0;endArrow=none;endFill=0;exitX=0.5;exitY=1;exitDx=0;exitDy=0;" edge="1" parent="1" source="8w0o-zl5EEHGcj-6kQpV-173" target="8w0o-zl5EEHGcj-6kQpV-46">
          <mxGeometry relative="1" as="geometry">
            <Array as="points">
              <mxPoint x="2124" y="2120" />
              <mxPoint x="1990" y="2120" />
            </Array>
          </mxGeometry>
        </mxCell>
        <mxCell id="8w0o-zl5EEHGcj-6kQpV-183" style="edgeStyle=orthogonalEdgeStyle;orthogonalLoop=1;jettySize=auto;html=1;entryX=0.25;entryY=1;entryDx=0;entryDy=0;fontColor=#FFFFFF;startArrow=none;startFill=0;endArrow=none;endFill=0;" edge="1" parent="1" source="8w0o-zl5EEHGcj-6kQpV-173" target="8w0o-zl5EEHGcj-6kQpV-31">
          <mxGeometry relative="1" as="geometry" />
        </mxCell>
        <mxCell id="8w0o-zl5EEHGcj-6kQpV-173" value="작성한다" style="rhombus;whiteSpace=wrap;html=1;" vertex="1" parent="1">
          <mxGeometry x="2070" y="1860" width="107.5" height="120" as="geometry" />
        </mxCell>
      </root>
    </mxGraphModel>
  </diagram>
</mxfile>
